<svg xmlns="http://www.w3.org/2000/svg" version="1.1" xmlns:xlink="http://www.w3.org/1999/xlink" xmlns:svgjs="http://svgjs.dev/svgjs" width="1500" height="1500" viewBox="0 0 1500 1500"><rect width="1500" height="1500" fill="#000000"></rect><g transform="matrix(0.6666666666666666,0,0,0.6666666666666666,249.39393939393938,600.5162730791077)"><svg viewBox="0 0 396 119" data-background-color="#ffffff" preserveAspectRatio="xMidYMid meet" height="450" width="1500" xmlns="http://www.w3.org/2000/svg" xmlns:xlink="http://www.w3.org/1999/xlink"><g id="tight-bounds" transform="matrix(1,0,0,1,0.2400000000000091,-0.20478832137939662)"><svg viewBox="0 0 395.52 119.4095766427588" height="119.4095766427588" width="395.52"><g><svg viewBox="0 0 395.52 119.4095766427588" height="119.4095766427588" width="395.52"><g><svg viewBox="0 0 395.52 119.4095766427588" height="119.4095766427588" width="395.52"><g id="textblocktransform"><svg viewBox="0 0 395.52 119.4095766427588" height="119.4095766427588" width="395.52" id="textblock"><g><svg viewBox="0 0 395.52 84.62909474572695" height="84.62909474572695" width="395.52"><g transform="matrix(1,0,0,1,0,0)"><svg width="395.52" viewBox="0.7 -38.9 236.93 50.7" height="84.62909474572695" data-palette-color="#e8772e"><path d="M38.3-38.9L38.3-26.8 29.7-26.8 29.7-30.7 26.5-30.7 26.5-8.2 30-8.2 30 0 9 0 9-8.2 12.5-8.2 12.5-30.7 9.3-30.7 9.3-26.8 0.7-26.8 0.7-38.9 38.3-38.9ZM61.25-28.5Q62.25-28.5 63.15-28.3 64.05-28.1 64.65-27.8L64.65-27.8 64.65-18.25Q62.6-19.1 60.25-19.1L60.25-19.1Q57.1-19.1 55.4-17.45 53.7-15.8 53.7-12.55L53.7-12.55 53.7-8.2 58.2-8.2 58.2 0 40 0 40-8.2 42.2-8.2 42.2-19.6 40-19.6 40-27.8 53.7-27.8 53.7-24.15Q55.1-26.25 56.9-27.38 58.7-28.5 61.25-28.5L61.25-28.5ZM93.19-8.2L95.39-8.2 95.39 0 82.19 0 82.19-3.4Q81.09-1.8 79.12-0.55 77.14 0.7 74.3 0.7L74.3 0.7Q70.55 0.7 68.39-1.3 66.25-3.3 66.25-6.95L66.25-6.95Q66.25-16.4 82.3-16.65L82.3-16.65Q82.14-18.35 81-18.98 79.84-19.6 77.09-19.6L77.09-19.6Q74.84-19.6 72.27-19.13 69.69-18.65 67.55-17.85L67.55-17.85 67.55-27.05Q70.19-27.7 73.3-28.1 76.39-28.5 79.34-28.5L79.34-28.5Q86.8-28.5 90-25.8 93.19-23.1 93.19-17.45L93.19-17.45 93.19-8.2ZM82.19-11.4L82.19-11.7Q79.94-11.7 78.72-11.1 77.5-10.5 77.5-9.1L77.5-9.1Q77.5-8.25 78.02-7.73 78.55-7.2 79.5-7.2L79.5-7.2Q80.8-7.2 81.5-8.3 82.19-9.4 82.19-11.4L82.19-11.4ZM117.89 0L102.99 0 96.69-19.6 94.59-19.6 94.59-27.8 110.04-27.8 110.04-19.6 107.94-19.6 110.59-9.7 111.09-9.7 113.74-19.6 111.64-19.6 111.64-27.8 126.14-27.8 126.14-19.6 124.04-19.6 117.89 0ZM142.44 0.7Q135.34 0.7 131.34-3.03 127.34-6.75 127.34-13.9L127.34-13.9Q127.34-21.05 131.34-24.78 135.34-28.5 142.44-28.5L142.44-28.5Q149.49-28.5 152.62-24.83 155.74-21.15 155.74-15.7L155.74-15.7 155.74-12.1 139.54-12.1 139.54-11.8Q139.54-9.95 140.64-9.08 141.74-8.2 144.29-8.2L144.29-8.2Q147.34-8.2 150.09-8.65 152.84-9.1 154.89-9.8L154.89-9.8 154.89-1.8Q153.14-0.85 149.77-0.08 146.39 0.7 142.44 0.7L142.44 0.7ZM139.54-17.6L145.34-17.6 145.34-18.2Q145.34-19.9 144.62-20.65 143.89-21.4 142.44-21.4L142.44-21.4Q140.99-21.4 140.27-20.63 139.54-19.85 139.54-18.2L139.54-18.2 139.54-17.6ZM173.14 0.05L157.24 0.05 157.24-8.2 159.44-8.2 159.44-30.7 157.24-30.7 157.24-38.9 170.94-38.9 170.94-8.2 173.14-8.2 173.14 0.05ZM189.64 0.7Q182.54 0.7 178.54-3.03 174.54-6.75 174.54-13.9L174.54-13.9Q174.54-21.05 178.54-24.78 182.54-28.5 189.64-28.5L189.64-28.5Q196.84-28.5 200.79-24.73 204.74-20.95 204.74-13.9L204.74-13.9Q204.74-6.75 200.74-3.03 196.74 0.7 189.64 0.7L189.64 0.7ZM189.64-8.2Q191.09-8.2 191.81-8.97 192.54-9.75 192.54-11.4L192.54-11.4 192.54-16.4Q192.54-18.05 191.81-18.82 191.09-19.6 189.64-19.6L189.64-19.6Q188.19-19.6 187.46-18.82 186.74-18.05 186.74-16.4L186.74-16.4 186.74-11.4Q186.74-9.75 187.46-8.97 188.19-8.2 189.64-8.2L189.64-8.2ZM220.98 11.8Q217.38 11.8 214.11 11.3 210.83 10.8 209.03 10.15L209.03 10.15 209.03 1.95Q214.33 2.9 218.53 2.9L218.53 2.9Q221.38 2.9 222.66 2.02 223.93 1.15 223.93-1.25L223.93-1.25 223.93-3.4Q222.68-1.8 220.71-0.55 218.73 0.7 216.18 0.7L216.18 0.7Q211.08 0.7 208.51-3.1 205.93-6.9 205.93-13.9L205.93-13.9Q205.93-20.9 208.51-24.7 211.08-28.5 216.18-28.5L216.18-28.5Q218.73-28.5 220.71-27.25 222.68-26 223.93-24.4L223.93-24.4 223.93-27.8 237.63-27.8 237.63-19.6 235.43-19.6 235.43-2Q235.43 5.25 231.83 8.53 228.23 11.8 220.98 11.8L220.98 11.8ZM221.03-8.2Q222.48-8.2 223.21-8.97 223.93-9.75 223.93-11.4L223.93-11.4 223.93-16.4Q223.93-18.05 223.21-18.82 222.48-19.6 221.03-19.6L221.03-19.6Q219.58-19.6 218.86-18.82 218.13-18.05 218.13-16.4L218.13-16.4 218.13-11.4Q218.13-9.75 218.86-8.97 219.58-8.2 221.03-8.2L221.03-8.2Z" opacity="1" transform="matrix(1,0,0,1,0,0)" fill="#ffffff" class="wordmark-text-0" data-fill-palette-color="primary" id="text-0"></path></svg></g></svg></g><g transform="matrix(1,0,0,1,0,104.60799291691919)"><svg viewBox="0 0 232.209792 14.801583725839617" height="14.801583725839617" width="232.209792"><g transform="matrix(1,0,0,1,0,0)"><svg width="232.209792" viewBox="0 -35.75 729.43 46.5" height="14.801583725839617" data-palette-color="#e8772e"><path d="M9.75 0L9.75-0.75 12.75-1.5 12.75-13 2.5-33.5 0-34.25 0-35 6.25-35Q8.85-35 10.43-33.9 12-32.8 13-30.75L13-30.75 20.4-16 28-32.75 24.25-34.25 24.25-35 33.75-35 33.75-34.25 29.75-32.75 21-13.5 21-1.5 24-0.75 24 0 9.75 0ZM45.5 0.75Q39.3 0.75 35.77-2.78 32.25-6.3 32.25-12.5L32.25-12.5Q32.25-18.7 35.77-22.23 39.3-25.75 45.5-25.75L45.5-25.75Q51.7-25.75 55.22-22.23 58.75-18.7 58.75-12.5L58.75-12.5Q58.75-6.3 55.22-2.78 51.7 0.75 45.5 0.75L45.5 0.75ZM45.5-0.25Q47.5-0.25 48.87-3.05 50.25-5.85 50.25-12.5L50.25-12.5Q50.25-19.15 48.87-21.95 47.5-24.75 45.5-24.75L45.5-24.75Q43.5-24.75 42.12-21.95 40.75-19.15 40.75-12.5L40.75-12.5Q40.75-5.85 42.12-3.05 43.5-0.25 45.5-0.25L45.5-0.25ZM74.75 0.75Q71.95 0.75 69.72-0.43 67.5-1.6 66.25-3.5 65-5.4 65-7.5L65-7.5 65-23.5 62-24.25 62-25 68.5-25Q73-25 73-20.5L73-20.5 73-7.5Q73-4.35 74.12-2.68 75.25-1 76.75-1L76.75-1Q78.59-1 80.09-3L80.09-3Q80.65-3.75 81.25-5L81.25-5 81.25-23.5 78.25-24.25 78.25-25 92.25-25 92.25-24.25 89.25-23.5 89.25 0.25 88.75 0.25Q85.09 0.25 83.2-1.75L83.2-1.75Q82.34-2.65 82-3.75L82-3.75Q81.3-2.5 80.34-1.5L80.34-1.5Q78.09 0.75 74.75 0.75L74.75 0.75ZM95.24 0L95.24-0.75 98.24-1.5 98.24-23.5 95.24-24.25 95.24-25 99.74-25Q102.69-25 104.39-23.1L104.39-23.1Q105.04-22.35 105.49-21.25L105.49-21.25Q106.24-22.35 107.34-23.25L107.34-23.25Q109.84-25.25 112.94-25.25L112.94-25.25Q115.59-25.25 116.92-24.03 118.24-22.8 118.24-20.5L118.24-20.5Q118.24-18.8 117.22-17.78 116.19-16.75 114.49-16.75L114.49-16.75Q113.79-16.75 113.09-16.85L113.09-16.85 112.49-17 112.49-24Q109.94-24 107.84-22L107.84-22Q106.84-21 106.24-20L106.24-20 106.24-1.5 109.24-0.75 109.24 0 95.24 0ZM141.24 0L141.24-0.75 144.24-1.5 144.24-33.75 138.49-33.75Q138.49-30.7 136.84-27.9L136.84-27.9Q136.14-26.75 135.24-26L135.24-26 133.74-26 133.74-35 162.99-35 162.99-26 161.49-26Q160.54-26.75 159.84-27.9L159.84-27.9Q158.24-30.6 158.24-33.75L158.24-33.75 152.49-33.75 152.49-1.5 155.49-0.75 155.49 0 141.24 0ZM164.24 0L164.24-0.75 167.24-1.5 167.24-23.5 164.24-24.25 164.24-25 168.74-25Q171.69-25 173.39-23.1L173.39-23.1Q174.04-22.35 174.49-21.25L174.49-21.25Q175.24-22.35 176.34-23.25L176.34-23.25Q178.84-25.25 181.94-25.25L181.94-25.25Q184.59-25.25 185.91-24.03 187.24-22.8 187.24-20.5L187.24-20.5Q187.24-18.8 186.21-17.78 185.19-16.75 183.49-16.75L183.49-16.75Q182.79-16.75 182.09-16.85L182.09-16.85 181.49-17 181.49-24Q178.94-24 176.84-22L176.84-22Q175.84-21 175.24-20L175.24-20 175.24-1.5 178.24-0.75 178.24 0 164.24 0ZM198.23 0.75Q193.78 0.75 191.38-1.15 188.98-3.05 188.98-6L188.98-6Q188.98-7.95 189.83-9.85L189.83-9.85Q190.18-10.75 190.73-11.5L190.73-11.5Q192.78-12 195.18-12.4L195.18-12.4Q200.58-13.3 204.73-13.5L204.73-13.5 204.73-15Q204.73-20.55 203.38-22.65 202.03-24.75 199.23-24.75L199.23-24.75Q198.18-24.75 197.43-24.5L197.43-24.5 196.73-24.25 196.73-16.75 196.08-16.6Q195.28-16.5 194.73-16.5L194.73-16.5Q193.03-16.5 192.01-17.53 190.98-18.55 190.98-20.25L190.98-20.25Q190.98-22.55 193.31-24.15 195.63-25.75 200.23-25.75L200.23-25.75Q204.13-25.75 206.96-24.38 209.78-23 211.26-20.58 212.73-18.15 212.73-15L212.73-15 212.73-1.5 215.73-0.75 215.73 0 211.23 0Q208.23 0 206.58-1.85L206.58-1.85Q205.88-2.6 205.48-3.75L205.48-3.75Q204.78-2.5 203.83-1.5L203.83-1.5Q201.58 0.75 198.23 0.75L198.23 0.75ZM200.23-1Q202.08-1 203.58-3L203.58-3Q204.13-3.75 204.73-5L204.73-5 204.73-12.25Q202.43-12.25 200.33-12L200.33-12Q198.78-11.8 198.23-11.75L198.23-11.75Q197.98-11.2 197.73-10.25L197.73-10.25Q197.23-8.35 197.23-6.5L197.23-6.5Q197.23-3.7 198.08-2.35 198.93-1 200.23-1L200.23-1ZM229.73 0.5L217.23-23.5 214.73-24.25 214.73-25 220.98-25Q223.58-25 225.11-23.93 226.63-22.85 227.73-20.75L227.73-20.75 233.68-9.2 239.23-22.75 235.48-24.25 235.48-25 244.73-25 244.73-24.25 240.73-22.75 231.23 0.5 229.73 0.5ZM258.23 0.75Q251.83 0.75 248.28-2.78 244.73-6.3 244.73-12.5L244.73-12.5Q244.73-16.55 246.28-19.55 247.83-22.55 250.6-24.15 253.38-25.75 256.98-25.75L256.98-25.75Q260.58-25.75 263.3-24.4 266.03-23.05 267.5-20.78 268.98-18.5 268.98-15.75L268.98-15.75Q268.98-14.5 268.73-13.6L268.73-13.6 268.48-12.75Q266.33-12.3 263.83-12L263.83-12Q258.58-11.25 253.23-11.25L253.23-11.25Q253.23-5.45 254.83-2.98 256.43-0.5 259.23-0.5L259.23-0.5Q261.18-0.5 262.85-1.43 264.53-2.35 265.5-3.88 266.48-5.4 266.48-7L266.48-7 267.73-7Q267.73-5 266.53-3.2 265.33-1.4 263.18-0.33 261.03 0.75 258.23 0.75L258.23 0.75ZM253.23-12.5Q256.43-12.5 258.43-12.75L258.43-12.75Q259.28-12.8 260.23-13L260.23-13Q260.28-13.25 260.48-14.1L260.48-14.1Q260.73-15.35 260.73-16.75L260.73-16.75Q260.73-20.9 259.63-22.83 258.53-24.75 256.98-24.75L256.98-24.75Q253.23-24.75 253.23-12.5L253.23-12.5ZM272.73 0L272.73-0.75 275.73-1.5 275.73-33.5 272.73-34.25 272.73-35 279.23-35Q283.73-35 283.73-30.5L283.73-30.5 283.73-1.5 286.73-0.75 286.73 0 272.73 0ZM316.47 0.75Q312.92 0.75 309.82-0.85L309.82-0.85Q308.42-1.55 307.47-2.5L307.47-2.5Q306.77-1.35 305.72-0.45L305.72-0.45Q304.82 0.2 304.72 0.25L304.72 0.25 303.47 0.25 303.47-9.25 305.47-9.25Q306.22-6.8 307.57-4.85L307.57-4.85Q310.62-0.5 315.47-0.5L315.47-0.5Q318.32-0.5 320.02-2.2 321.72-3.9 321.72-6.75L321.72-6.75Q321.72-8.4 320.75-9.7 319.77-11 318.32-12 316.87-13 314.27-14.5L314.27-14.5Q310.97-16.35 308.92-17.85 306.87-19.35 305.42-21.63 303.97-23.9 303.97-27L303.97-27Q303.97-29.45 305.35-31.43 306.72-33.4 309.47-34.58 312.22-35.75 316.22-35.75L316.22-35.75Q319.12-35.75 322.02-34.1L322.02-34.1Q323.12-33.5 324.22-32.5L324.22-32.5Q325.07-33.8 325.97-34.55L325.97-34.55Q326.87-35.2 326.97-35.25L326.97-35.25 328.22-35.25 328.22-25.75 326.22-25.75Q325.57-28.15 324.27-30.1L324.27-30.1Q323.07-32 321.3-33.25 319.52-34.5 317.22-34.5L317.22-34.5Q315.27-34.5 313.87-32.95 312.47-31.4 312.47-29L312.47-29Q312.47-27.15 313.55-25.68 314.62-24.2 316.2-23.1 317.77-22 320.47-20.45L320.47-20.45Q323.62-18.65 325.57-17.25 327.52-15.85 328.87-13.78 330.22-11.7 330.22-9L330.22-9Q330.22-6.3 328.67-4.08 327.12-1.85 324.02-0.55 320.92 0.75 316.47 0.75L316.47 0.75ZM346.47 0.75Q343.17 0.75 340.74-0.45 338.32-1.65 337.02-3.75 335.72-5.85 335.72-8.5L335.72-8.5 335.72-23.75 332.22-23.75 332.22-25 335.72-25 335.72-27.5Q335.72-32 340.22-32L340.22-32 343.72-32 343.72-25 350.72-25 350.72-23.75 343.72-23.75 343.72-8.5Q343.72-3.9 344.67-2.2 345.62-0.5 347.47-0.5L347.47-0.5Q349.27-0.5 350.62-2.25 351.97-4 351.97-7L351.97-7 353.22-7Q353.22-3.3 351.37-1.28 349.52 0.75 346.47 0.75L346.47 0.75ZM369.22 0.75Q363.02 0.75 359.49-2.78 355.97-6.3 355.97-12.5L355.97-12.5Q355.97-18.7 359.49-22.23 363.02-25.75 369.22-25.75L369.22-25.75Q375.42-25.75 378.94-22.23 382.47-18.7 382.47-12.5L382.47-12.5Q382.47-6.3 378.94-2.78 375.42 0.75 369.22 0.75L369.22 0.75ZM369.22-0.25Q371.22-0.25 372.59-3.05 373.97-5.85 373.97-12.5L373.97-12.5Q373.97-19.15 372.59-21.95 371.22-24.75 369.22-24.75L369.22-24.75Q367.22-24.75 365.84-21.95 364.47-19.15 364.47-12.5L364.47-12.5Q364.47-5.85 365.84-3.05 367.22-0.25 369.22-0.25L369.22-0.25ZM386.46 0L386.46-0.75 389.46-1.5 389.46-23.5 386.46-24.25 386.46-25 390.96-25Q393.91-25 395.61-23.1L395.61-23.1Q396.26-22.35 396.71-21.25L396.71-21.25Q397.46-22.35 398.56-23.25L398.56-23.25Q401.06-25.25 404.16-25.25L404.16-25.25Q406.81-25.25 408.14-24.03 409.46-22.8 409.46-20.5L409.46-20.5Q409.46-18.8 408.44-17.78 407.41-16.75 405.71-16.75L405.71-16.75Q405.01-16.75 404.31-16.85L404.31-16.85 403.71-17 403.71-24Q401.16-24 399.06-22L399.06-22Q398.06-21 397.46-20L397.46-20 397.46-1.5 400.46-0.75 400.46 0 386.46 0ZM411.71 0L411.71-0.75 414.71-1.5 414.71-23.5 411.71-24.25 411.71-25 418.21-25Q422.71-25 422.71-20.5L422.71-20.5 422.71-1.5 425.71-0.75 425.71 0 411.71 0ZM418.21-28Q416.71-28 415.71-29 414.71-30 414.71-31.5L414.71-31.5Q414.71-33 415.71-34 416.71-35 418.21-35L418.21-35Q419.71-35 420.71-34 421.71-33 421.71-31.5L421.71-31.5Q421.71-30 420.71-29 419.71-28 418.21-28L418.21-28ZM442.21 0.75Q435.81 0.75 432.26-2.78 428.71-6.3 428.71-12.5L428.71-12.5Q428.71-16.55 430.26-19.55 431.81-22.55 434.58-24.15 437.36-25.75 440.96-25.75L440.96-25.75Q444.56-25.75 447.28-24.4 450.01-23.05 451.48-20.78 452.96-18.5 452.96-15.75L452.96-15.75Q452.96-14.5 452.71-13.6L452.71-13.6 452.46-12.75Q450.31-12.3 447.81-12L447.81-12Q442.56-11.25 437.21-11.25L437.21-11.25Q437.21-5.45 438.81-2.98 440.41-0.5 443.21-0.5L443.21-0.5Q445.16-0.5 446.83-1.43 448.51-2.35 449.48-3.88 450.46-5.4 450.46-7L450.46-7 451.71-7Q451.71-5 450.51-3.2 449.31-1.4 447.16-0.33 445.01 0.75 442.21 0.75L442.21 0.75ZM437.21-12.5Q440.41-12.5 442.41-12.75L442.41-12.75Q443.26-12.8 444.21-13L444.21-13Q444.26-13.25 444.46-14.1L444.46-14.1Q444.71-15.35 444.71-16.75L444.71-16.75Q444.71-20.9 443.61-22.83 442.51-24.75 440.96-24.75L440.96-24.75Q437.21-24.75 437.21-12.5L437.21-12.5ZM468.46 0.75Q465.36 0.75 462.91-0.6L462.91-0.6Q461.71-1.25 460.96-2L460.96-2Q460.16-0.9 459.21-0.3L459.21-0.3Q458.76 0 458.21 0.25L458.21 0.25 456.96 0.25 456.96-8.25 458.96-8.25Q459.61-6.15 460.86-4.35L460.86-4.35Q463.51-0.5 467.46-0.5L467.46-0.5Q469.56-0.5 470.63-1.53 471.71-2.55 471.71-4.5L471.71-4.5Q471.71-6.15 470.23-7.28 468.76-8.4 465.61-10.05L465.61-10.05Q462.91-11.4 461.23-12.48 459.56-13.55 458.38-15.18 457.21-16.8 457.21-19L457.21-19Q457.21-22 459.78-23.88 462.36-25.75 467.71-25.75L467.71-25.75Q470.36-25.75 472.61-24.35L472.61-24.35Q473.71-23.7 474.51-23L474.51-23Q475.16-23.9 476.26-24.7L476.26-24.7Q477.11-25.2 477.26-25.25L477.26-25.25 478.51-25.25 478.51-16.75 476.51-16.75Q475.76-18.9 474.66-20.6L474.66-20.6Q472.16-24.5 468.71-24.5L468.71-24.5Q467.36-24.5 466.41-23.5 465.46-22.5 465.46-21L465.46-21Q465.46-19.1 467.06-17.82 468.66-16.55 471.91-14.9L471.91-14.9Q474.56-13.55 476.13-12.53 477.71-11.5 478.83-10 479.96-8.5 479.96-6.5L479.96-6.5Q479.96 0.75 468.46 0.75L468.46 0.75ZM509.45 10.75Q505 10.75 502.2 9.95 499.4 9.15 498.18 7.9 496.95 6.65 496.95 5.25L496.95 5.25Q496.95 3.55 497.98 2.53 499 1.5 500.7 1.5L500.7 1.5Q501.1 1.5 502.15 1.65L502.15 1.65 502.7 1.75 502.7 8.75Q503.3 8.95 504.6 9.25L504.6 9.25Q506.9 9.75 508.95 9.75L508.95 9.75Q515.05 9.75 517.88 8.03 520.7 6.3 520.7 3.75L520.7 3.75Q520.7 0.5 514.7 0.5L514.7 0.5 505.2 0.5Q501.45 0.5 499.45-1.05 497.45-2.6 497.45-5L497.45-5Q497.45-7.4 499.8-9.25L499.8-9.25Q500.75-9.95 502.2-10.5L502.2-10.5Q500.35-11.65 499.53-13.23 498.7-14.8 498.7-17L498.7-17Q498.7-20.7 501.5-22.98 504.3-25.25 509.7-25.25L509.7-25.25Q512.05-25.25 514.03-24.78 516-24.3 517.2-23.5L517.2-23.5Q517.6-24.35 518.25-25L518.25-25Q519.75-26.5 521.95-26.5L521.95-26.5Q523.65-26.5 524.8-25.33 525.95-24.15 525.95-22.25L525.95-22.25Q525.95-20.8 525.18-19.9 524.4-19 523.2-19L523.2-19Q522.65-19 521.95-19.1L521.95-19.1 521.45-19.25 521.45-25.25Q520.15-25.25 519-24L519-24Q518.55-23.55 518.2-22.75L518.2-22.75Q520.7-20.55 520.7-17L520.7-17Q520.7-13.3 517.9-11.03 515.1-8.75 509.7-8.75L509.7-8.75Q506.1-8.75 503.2-10L503.2-10 502.2-9.5Q501.7-9.2 501.45-8.93 501.2-8.65 501.2-8.25L501.2-8.25Q501.2-7.4 502.08-6.95 502.95-6.5 505.2-6.5L505.2-6.5 514.7-6.5Q518.45-6.5 520.58-4.33 522.7-2.15 522.7 1.75L522.7 1.75Q522.7 5.75 519.38 8.25 516.05 10.75 509.45 10.75L509.45 10.75ZM509.7-9.75Q511.35-9.75 512.28-11.35 513.2-12.95 513.2-17L513.2-17Q513.2-21.05 512.28-22.65 511.35-24.25 509.7-24.25L509.7-24.25Q508.05-24.25 507.13-22.65 506.2-21.05 506.2-17L506.2-17Q506.2-12.95 507.13-11.35 508.05-9.75 509.7-9.75L509.7-9.75ZM540.2 0.75Q534 0.75 530.47-2.78 526.95-6.3 526.95-12.5L526.95-12.5Q526.95-18.7 530.47-22.23 534-25.75 540.2-25.75L540.2-25.75Q546.4-25.75 549.92-22.23 553.45-18.7 553.45-12.5L553.45-12.5Q553.45-6.3 549.92-2.78 546.4 0.75 540.2 0.75L540.2 0.75ZM540.2-0.25Q542.2-0.25 543.57-3.05 544.95-5.85 544.95-12.5L544.95-12.5Q544.95-19.15 543.57-21.95 542.2-24.75 540.2-24.75L540.2-24.75Q538.2-24.75 536.82-21.95 535.45-19.15 535.45-12.5L535.45-12.5Q535.45-5.85 536.82-3.05 538.2-0.25 540.2-0.25L540.2-0.25ZM570.44 0.75Q567.14 0.75 564.72-0.45 562.29-1.65 560.99-3.75 559.69-5.85 559.69-8.5L559.69-8.5 559.69-23.75 556.19-23.75 556.19-25 559.69-25 559.69-27.5Q559.69-32 564.19-32L564.19-32 567.69-32 567.69-25 574.69-25 574.69-23.75 567.69-23.75 567.69-8.5Q567.69-3.9 568.64-2.2 569.59-0.5 571.44-0.5L571.44-0.5Q573.24-0.5 574.59-2.25 575.94-4 575.94-7L575.94-7 577.19-7Q577.19-3.3 575.34-1.28 573.49 0.75 570.44 0.75L570.44 0.75ZM606.69 0.75Q603.14 0.75 600.04-0.85L600.04-0.85Q598.64-1.55 597.69-2.5L597.69-2.5Q596.99-1.35 595.94-0.45L595.94-0.45Q595.04 0.2 594.94 0.25L594.94 0.25 593.69 0.25 593.69-9.25 595.69-9.25Q596.44-6.8 597.79-4.85L597.79-4.85Q600.84-0.5 605.69-0.5L605.69-0.5Q608.54-0.5 610.24-2.2 611.94-3.9 611.94-6.75L611.94-6.75Q611.94-8.4 610.96-9.7 609.99-11 608.54-12 607.09-13 604.49-14.5L604.49-14.5Q601.19-16.35 599.14-17.85 597.09-19.35 595.64-21.63 594.19-23.9 594.19-27L594.19-27Q594.19-29.45 595.56-31.43 596.94-33.4 599.69-34.58 602.44-35.75 606.44-35.75L606.44-35.75Q609.34-35.75 612.24-34.1L612.24-34.1Q613.34-33.5 614.44-32.5L614.44-32.5Q615.29-33.8 616.19-34.55L616.19-34.55Q617.09-35.2 617.19-35.25L617.19-35.25 618.44-35.25 618.44-25.75 616.44-25.75Q615.79-28.15 614.49-30.1L614.49-30.1Q613.29-32 611.51-33.25 609.74-34.5 607.44-34.5L607.44-34.5Q605.49-34.5 604.09-32.95 602.69-31.4 602.69-29L602.69-29Q602.69-27.15 603.76-25.68 604.84-24.2 606.41-23.1 607.99-22 610.69-20.45L610.69-20.45Q613.84-18.65 615.79-17.25 617.74-15.85 619.09-13.78 620.44-11.7 620.44-9L620.44-9Q620.44-6.3 618.89-4.08 617.34-1.85 614.24-0.55 611.14 0.75 606.69 0.75L606.69 0.75ZM636.69 0.75Q633.39 0.75 630.96-0.45 628.54-1.65 627.24-3.75 625.94-5.85 625.94-8.5L625.94-8.5 625.94-23.75 622.44-23.75 622.44-25 625.94-25 625.94-27.5Q625.94-32 630.44-32L630.44-32 633.94-32 633.94-25 640.94-25 640.94-23.75 633.94-23.75 633.94-8.5Q633.94-3.9 634.89-2.2 635.84-0.5 637.69-0.5L637.69-0.5Q639.49-0.5 640.84-2.25 642.19-4 642.19-7L642.19-7 643.44-7Q643.44-3.3 641.59-1.28 639.74 0.75 636.69 0.75L636.69 0.75ZM655.43 0.75Q650.98 0.75 648.58-1.15 646.18-3.05 646.18-6L646.18-6Q646.18-7.95 647.03-9.85L647.03-9.85Q647.38-10.75 647.93-11.5L647.93-11.5Q649.98-12 652.38-12.4L652.38-12.4Q657.78-13.3 661.93-13.5L661.93-13.5 661.93-15Q661.93-20.55 660.58-22.65 659.23-24.75 656.43-24.75L656.43-24.75Q655.38-24.75 654.63-24.5L654.63-24.5 653.93-24.25 653.93-16.75 653.28-16.6Q652.48-16.5 651.93-16.5L651.93-16.5Q650.23-16.5 649.21-17.53 648.18-18.55 648.18-20.25L648.18-20.25Q648.18-22.55 650.51-24.15 652.83-25.75 657.43-25.75L657.43-25.75Q661.33-25.75 664.16-24.38 666.98-23 668.46-20.58 669.93-18.15 669.93-15L669.93-15 669.93-1.5 672.93-0.75 672.93 0 668.43 0Q665.43 0 663.78-1.85L663.78-1.85Q663.08-2.6 662.68-3.75L662.68-3.75Q661.98-2.5 661.03-1.5L661.03-1.5Q658.78 0.75 655.43 0.75L655.43 0.75ZM657.43-1Q659.28-1 660.78-3L660.78-3Q661.33-3.75 661.93-5L661.93-5 661.93-12.25Q659.63-12.25 657.53-12L657.53-12Q655.98-11.8 655.43-11.75L655.43-11.75Q655.18-11.2 654.93-10.25L654.93-10.25Q654.43-8.35 654.43-6.5L654.43-6.5Q654.43-3.7 655.28-2.35 656.13-1 657.43-1L657.43-1ZM687.68 10.75Q683.23 10.75 680.43 9.95 677.63 9.15 676.41 7.9 675.18 6.65 675.18 5.25L675.18 5.25Q675.18 3.55 676.21 2.53 677.23 1.5 678.93 1.5L678.93 1.5Q679.33 1.5 680.38 1.65L680.38 1.65 680.93 1.75 680.93 8.75Q681.53 8.95 682.83 9.25L682.83 9.25Q685.13 9.75 687.18 9.75L687.18 9.75Q693.28 9.75 696.11 8.03 698.93 6.3 698.93 3.75L698.93 3.75Q698.93 0.5 692.93 0.5L692.93 0.5 683.43 0.5Q679.68 0.5 677.68-1.05 675.68-2.6 675.68-5L675.68-5Q675.68-7.4 678.03-9.25L678.03-9.25Q678.98-9.95 680.43-10.5L680.43-10.5Q678.58-11.65 677.76-13.23 676.93-14.8 676.93-17L676.93-17Q676.93-20.7 679.73-22.98 682.53-25.25 687.93-25.25L687.93-25.25Q690.28-25.25 692.26-24.78 694.23-24.3 695.43-23.5L695.43-23.5Q695.83-24.35 696.48-25L696.48-25Q697.98-26.5 700.18-26.5L700.18-26.5Q701.88-26.5 703.03-25.33 704.18-24.15 704.18-22.25L704.18-22.25Q704.18-20.8 703.41-19.9 702.63-19 701.43-19L701.43-19Q700.88-19 700.18-19.1L700.18-19.1 699.68-19.25 699.68-25.25Q698.38-25.25 697.23-24L697.23-24Q696.78-23.55 696.43-22.75L696.43-22.75Q698.93-20.55 698.93-17L698.93-17Q698.93-13.3 696.13-11.03 693.33-8.75 687.93-8.75L687.93-8.75Q684.33-8.75 681.43-10L681.43-10 680.43-9.5Q679.93-9.2 679.68-8.93 679.43-8.65 679.43-8.25L679.43-8.25Q679.43-7.4 680.31-6.95 681.18-6.5 683.43-6.5L683.43-6.5 692.93-6.5Q696.68-6.5 698.81-4.33 700.93-2.15 700.93 1.75L700.93 1.75Q700.93 5.75 697.61 8.25 694.28 10.75 687.68 10.75L687.68 10.75ZM687.93-9.75Q689.58-9.75 690.51-11.35 691.43-12.95 691.43-17L691.43-17Q691.43-21.05 690.51-22.65 689.58-24.25 687.93-24.25L687.93-24.25Q686.28-24.25 685.36-22.65 684.43-21.05 684.43-17L684.43-17Q684.43-12.95 685.36-11.35 686.28-9.75 687.93-9.75L687.93-9.75ZM718.68 0.75Q712.28 0.75 708.73-2.78 705.18-6.3 705.18-12.5L705.18-12.5Q705.18-16.55 706.73-19.55 708.28-22.55 711.05-24.15 713.83-25.75 717.43-25.75L717.43-25.75Q721.03-25.75 723.75-24.4 726.48-23.05 727.95-20.78 729.43-18.5 729.43-15.75L729.43-15.75Q729.43-14.5 729.18-13.6L729.18-13.6 728.93-12.75Q726.78-12.3 724.28-12L724.28-12Q719.03-11.25 713.68-11.25L713.68-11.25Q713.68-5.45 715.28-2.98 716.88-0.5 719.68-0.5L719.68-0.5Q721.63-0.5 723.3-1.43 724.98-2.35 725.95-3.88 726.93-5.4 726.93-7L726.93-7 728.18-7Q728.18-5 726.98-3.2 725.78-1.4 723.63-0.33 721.48 0.75 718.68 0.75L718.68 0.75ZM713.68-12.5Q716.88-12.5 718.88-12.75L718.88-12.75Q719.73-12.8 720.68-13L720.68-13Q720.73-13.25 720.93-14.1L720.93-14.1Q721.18-15.35 721.18-16.75L721.18-16.75Q721.18-20.9 720.08-22.83 718.98-24.75 717.43-24.75L717.43-24.75Q713.68-24.75 713.68-12.5L713.68-12.5Z" opacity="1" transform="matrix(1,0,0,1,0,0)" fill="#ffffff" class="slogan-text-1" data-fill-palette-color="secondary" id="text-1"></path></svg></g></svg></g></svg></g></svg></g></svg></g><defs></defs></svg><rect width="395.52" height="119.4095766427588" fill="none" stroke="none" visibility="hidden"></rect></g></svg></g></svg>